<svg xmlns="http://www.w3.org/2000/svg" viewBox="0 0 200.16 127.2"><defs><style>.cls-1{fill:#231f20;}.cls-2,.cls-3{fill:none;stroke:#000;}.cls-2{stroke-miterlimit:10;}.cls-3{stroke-linecap:round;stroke-linejoin:round;}</style></defs><g id="Layer_2" data-name="Layer 2"><g id="Layer_3" data-name="Layer 3"><path class="cls-1" d="M125.29,106.15l4.49,9.77,4.83-11.33,4.87,11.33,4.43-9.77h4.43l-9,18.4-4.76-11-4.82,11-8.94-18.4Z"/><path class="cls-1" d="M161.25,106.15h4v17.12h-4v-1.79a7.6,7.6,0,0,1-11.12-.28,9.54,9.54,0,0,1-2.31-6.54,9.23,9.23,0,0,1,2.31-6.42,7.4,7.4,0,0,1,5.76-2.56,7.28,7.28,0,0,1,5.36,2.46Zm-9.38,8.51a6,6,0,0,0,1.31,4,4.34,4.34,0,0,0,3.41,1.56,4.55,4.55,0,0,0,3.56-1.51,6.53,6.53,0,0,0,0-8,4.5,4.5,0,0,0-3.52-1.53,4.37,4.37,0,0,0-3.41,1.55A5.7,5.7,0,0,0,151.87,114.66Z"/><path class="cls-1" d="M170.86,106.15l4.43,9.62,4.41-9.62h4.45l-8.89,18.3-8.83-18.3Z"/><path class="cls-1" d="M200,115.64H187.73A5.16,5.16,0,0,0,189.1,119a4.17,4.17,0,0,0,3.11,1.23,4,4,0,0,0,2.44-.7,10,10,0,0,0,2.17-2.6l3.34,1.86a13.31,13.31,0,0,1-1.64,2.26,8.46,8.46,0,0,1-1.84,1.54,7.13,7.13,0,0,1-2.13.89,10.24,10.24,0,0,1-2.48.28,8.05,8.05,0,0,1-6.15-2.46,9.2,9.2,0,0,1-2.32-6.57,9.5,9.5,0,0,1,2.25-6.58,8.6,8.6,0,0,1,12-.07,9.51,9.51,0,0,1,2.18,6.63Zm-4.06-3.23a3.79,3.79,0,0,0-4-3.17,4.35,4.35,0,0,0-1.36.22,3.94,3.94,0,0,0-1.15.64,4,4,0,0,0-.89,1,4.91,4.91,0,0,0-.56,1.32Z"/><polygon class="cls-2" points="89.39 96.14 100.46 103.53 89.39 80.69 89.39 96.14"/><polyline class="cls-2" points="120.65 31.97 120.65 58.16 108.46 26.39 52.05 0.58 0.56 39.63 0.5 87.24 51.96 126.62 89.39 109.36 89.39 96.14 89.39 80.69 100.94 104.04 137.41 87.23 137.4 39.63 120.65 31.97"/><line class="cls-3" x1="111.38" y1="34" x2="120.65" y2="31.97"/><line class="cls-2" x1="51.96" y1="126.62" x2="52.05" y2="0.58"/><polyline class="cls-2" points="141.29 41.66 137.41 44.37 137.42 82.84 140.85 85.46 140.88 41.74"/><polyline class="cls-2" points="140.88 41.74 140.85 85.46 170.5 71.8 170.42 55.25 140.81 41.7"/></g></g></svg>